<svg width="36" height="24" viewBox="0 0 36 24" fill="none" xmlns="http://www.w3.org/2000/svg">
<path d="M36.0001 9.11416C36.0001 6.17312 34.1325 3.41775 31.2821 2.70776C30.0711 2.40619 28.8165 2.44464 27.6717 2.80911C26.3204 1.3287 24.3763 0.398438 22.2189 0.398438C20.6934 0.398438 19.2191 0.869476 17.9839 1.73575C16.7733 0.893646 15.2994 0.398438 13.7111 0.398438C11.6281 0.398438 9.64148 1.28915 8.25061 2.81378C7.35138 2.52566 6.37497 2.43173 5.38016 2.5773C2.21609 3.03982 -0.0462648 5.84655 0.000976399 9.25176C0.0223997 10.7723 0.607422 12.1112 1.57312 13.1456C0.565399 14.3431 -0.0234682 15.9364 0.000976399 17.6893C0.0487669 21.0574 2.94971 23.6015 6.23682 23.6015H29.6874C31.3115 23.6015 32.8641 23 34.0591 21.9077C35.2976 20.7756 35.987 19.2603 35.9999 17.6417L36.0001 17.5517C36.0001 16.1226 35.5527 14.7026 34.7406 13.5535C34.6359 13.4054 34.5255 13.2626 34.4099 13.1255C35.4201 12.0486 35.9881 10.6701 35.9999 9.20425L36.0001 9.11416ZM5.6853 4.66443C7.91937 4.33786 10.0178 5.79904 10.4627 7.99108L12.5298 7.57141C12.218 6.03524 11.3669 4.73858 10.2075 3.84183C11.1647 2.99341 12.412 2.50781 13.7111 2.50781C16.6576 2.50781 19.0548 4.87344 19.0548 7.78125H21.1642C21.1642 6.06216 20.5679 4.47848 19.5695 3.22247C20.3685 2.75775 21.2801 2.50781 22.2189 2.50781C25.1267 2.50781 27.4923 4.87344 27.4923 7.78125H29.6017C29.6017 6.67355 29.3559 5.62216 28.917 4.67816C29.5232 4.57956 30.162 4.60263 30.772 4.75479C32.5793 5.20495 33.8908 7.0383 33.8908 9.11416L33.8905 9.1864C33.8828 10.1477 33.49 11.056 32.7935 11.7619C32.32 11.4864 31.8122 11.2774 31.2821 11.1455C30.0711 10.8437 28.8165 10.8824 27.6717 11.2466C26.3204 9.7662 24.3763 8.83593 22.2189 8.83593C20.6934 8.83593 19.2191 9.30697 17.9839 10.1732C16.7733 9.33114 15.2994 8.83593 13.7111 8.83593C11.6281 8.83593 9.6412 9.72665 8.25061 11.2515C7.35138 10.9632 6.37497 10.8692 5.38016 11.0148C4.58475 11.131 3.84674 11.3955 3.18784 11.7803C2.52838 11.1076 2.12436 10.2337 2.11008 9.2221C2.07767 6.88861 3.58142 4.97204 5.6853 4.66443ZM33.8905 17.6239C33.8737 19.7206 31.9489 21.4922 29.6874 21.4922H6.23682C4.05218 21.4922 2.14084 19.8445 2.11008 17.6596C2.07794 15.3264 3.58142 13.4095 5.6853 13.1019C7.91937 12.7756 10.0178 14.2365 10.4627 16.4286L12.5298 16.0089C12.218 14.473 11.3666 13.1764 10.2075 12.2796C11.1647 11.4309 12.4117 10.9453 13.7111 10.9453C16.6576 10.9453 19.0548 13.3109 19.0548 16.2187H21.1642C21.1642 14.4997 20.5679 12.916 19.5695 11.66C20.3685 11.1952 21.2801 10.9453 22.2189 10.9453C25.1267 10.9453 27.4923 13.3109 27.4923 16.2187H29.6017C29.6017 15.111 29.3559 14.0597 28.917 13.1157C29.5232 13.0171 30.162 13.0401 30.772 13.1923C32.5793 13.6424 33.8908 15.4758 33.8908 17.5517L33.8905 17.6239Z" fill="white"/>
</svg>
