<svg width="36" height="34" fill="none" xmlns="http://www.w3.org/2000/svg"><path d="M35.541 10.503 25.386 1.269a1.23 1.23 0 0 0-1.281-.233L.775 10.319c-.502.2-.808.7-.771 1.227-.002.026-.004.052-.004.079v5.258c0 .68.55 1.23 1.23 1.23a4.197 4.197 0 0 1 4.192 4.192 4.197 4.197 0 0 1-4.193 4.193c-.679 0-1.229.55-1.229 1.23v4.094c0 .679.55 1.23 1.23 1.23h33.537c.68 0 1.23-.551 1.23-1.23V11.625c0-.017-.002-.034-.003-.05a1.227 1.227 0 0 0-.453-1.071Zm-11.24-6.898 7.287 6.627H7.645L24.3 3.605Zm9.237 26.987H2.458v-1.75c3.083-.578 5.423-3.29 5.423-6.537 0-3.248-2.34-5.96-5.422-6.537V12.69h31.08v17.902Z" fill="#fff"/><path d="M28.538 20.27a1.645 1.645 0 1 0 0-3.29 1.645 1.645 0 0 0 0 3.29ZM12.56 21.841a1.711 1.711 0 1 0 0-3.422 1.711 1.711 0 0 0 0 3.422ZM24.64 26.772a2.336 2.336 0 1 0 0-4.671 2.336 2.336 0 0 0 0 4.671ZM16.081 28.287a1.937 1.937 0 1 0 0-3.873 1.937 1.937 0 0 0 0 3.873Zm4.058-9.302a2.024 2.024 0 1 0 0-4.047 2.024 2.024 0 0 0 0 4.047Z" fill="#fff"/></svg>