<svg width="31" height="36" viewBox="0 0 31 36" fill="none" xmlns="http://www.w3.org/2000/svg">
<path d="M30.6562 11.3906C30.6562 8.05627 27.9437 5.34375 24.6094 5.34375C22.7469 5.34375 21.0789 6.1908 19.9688 7.51904C19.1472 6.53604 18.0198 5.81808 16.7344 5.51047V5.41406C16.7344 3.97952 17.9014 2.8125 19.3359 2.8125C20.1127 2.8125 20.7422 2.18298 20.7422 1.40625C20.7422 0.629517 20.1127 0 19.3359 0C16.3507 0 13.9219 2.4288 13.9219 5.41406V5.51047C12.6365 5.81808 11.509 6.53604 10.6875 7.51904C9.57733 6.1908 7.90933 5.34375 6.04688 5.34375C2.71252 5.34375 0 8.05627 0 11.3906C0 14.5725 2.47083 17.1862 5.59424 17.4188C4.99164 18.359 4.64062 19.4749 4.64062 20.6719C4.64062 23.8538 7.11145 26.4674 10.2349 26.7001C9.63226 27.6402 9.28125 28.7562 9.28125 29.9531C9.28125 33.2875 11.9938 36 15.3281 36C18.6625 36 21.375 33.2875 21.375 29.9531C21.375 28.7562 21.024 27.6402 20.4214 26.7001C23.5448 26.4674 26.0156 23.8538 26.0156 20.6719C26.0156 19.4749 25.6646 18.359 25.062 17.4188C28.1854 17.1862 30.6562 14.5725 30.6562 11.3906ZM15.3182 8.15652C15.3215 8.15652 15.3248 8.15707 15.3281 8.15707C15.3314 8.15707 15.3347 8.15652 15.338 8.15652C17.117 8.16202 18.5625 9.61057 18.5625 11.3906C18.5625 13.174 17.1115 14.625 15.3281 14.625C13.5448 14.625 12.0938 13.174 12.0938 11.3906C12.0938 9.61057 13.5393 8.16202 15.3182 8.15652ZM6.04688 14.625C4.26352 14.625 2.8125 13.174 2.8125 11.3906C2.8125 9.60727 4.26352 8.15625 6.04688 8.15625C7.83023 8.15625 9.28125 9.60727 9.28125 11.3906C9.28125 13.174 7.83023 14.625 6.04688 14.625ZM10.6875 23.9062C8.90414 23.9062 7.45312 22.4552 7.45312 20.6719C7.45312 18.8885 8.90414 17.4375 10.6875 17.4375C12.4709 17.4375 13.9219 18.8885 13.9219 20.6719C13.9219 22.4552 12.4709 23.9062 10.6875 23.9062ZM15.3281 33.1875C13.5448 33.1875 12.0938 31.7365 12.0938 29.9531C12.0938 28.1698 13.5448 26.7188 15.3281 26.7188C17.1115 26.7188 18.5625 28.1698 18.5625 29.9531C18.5625 31.7365 17.1115 33.1875 15.3281 33.1875ZM19.9688 23.9062C18.1854 23.9062 16.7344 22.4552 16.7344 20.6719C16.7344 18.8885 18.1854 17.4375 19.9688 17.4375C21.7521 17.4375 23.2031 18.8885 23.2031 20.6719C23.2031 22.4552 21.7521 23.9062 19.9688 23.9062ZM24.6094 14.625C22.826 14.625 21.375 13.174 21.375 11.3906C21.375 9.60727 22.826 8.15625 24.6094 8.15625C26.3927 8.15625 27.8438 9.60727 27.8438 11.3906C27.8438 13.174 26.3927 14.625 24.6094 14.625Z" fill="white"/>
</svg>
