<svg width="37" height="33" viewBox="0 0 37 33" fill="none" xmlns="http://www.w3.org/2000/svg">
<path d="M35.6951 14.3663C35.5608 13.9021 35.1975 13.5388 34.7333 13.4045C34.4729 13.3291 28.305 11.6124 23.7108 16.2071C21.3918 18.527 20.9886 22.0126 22.5592 24.5505L19.4439 27.6662V16.6686C22.3489 15.985 24.5279 13.2336 24.5279 9.95273C24.5279 3.45426 18.9527 0.305742 18.7152 0.175024C18.292 -0.0583415 17.7785 -0.0583415 17.3552 0.175024C17.1177 0.305742 11.5425 3.45426 11.5425 9.95273C11.5425 13.2336 13.7215 15.985 16.6265 16.6686V27.6662L13.5137 24.553C15.0386 22.1026 14.7552 18.6032 12.3593 16.2071C7.76546 11.6124 1.59749 13.3294 1.33716 13.4045C0.872903 13.5388 0.50992 13.9021 0.37535 14.3663C0.300221 14.6269 -1.41645 20.7963 3.17739 25.3909C5.53224 27.7461 9.01705 28.0917 11.5189 26.5429L17.0305 32.0553C17.5855 32.6211 18.4909 32.6154 19.0405 32.0551L24.5499 26.5446C27.0143 28.0788 30.5079 27.7763 32.893 25.3909C37.4869 20.796 35.7702 14.6267 35.6951 14.3663ZM11.4168 22.4551L9.6954 20.7335C9.14529 20.1834 8.25338 20.1834 7.70299 20.7335C7.15287 21.2839 7.15287 22.1761 7.70299 22.7262L9.42379 24.4473C8.05111 24.9545 6.36306 24.5918 5.16953 23.3982C3.17739 21.4055 2.53536 18.6673 2.92586 15.9556C5.62003 15.5673 8.36125 16.1936 10.3672 18.1998C11.597 19.4299 11.9099 21.1235 11.4168 22.4551ZM18.0352 9.86026C17.2572 9.86026 16.6265 10.4913 16.6265 11.2693V13.7034C15.2973 13.0913 14.36 11.6408 14.36 9.95273C14.36 7.13197 15.8455 4.74025 18.0377 3.10063C19.2637 4.01455 21.7104 6.2973 21.7104 9.95273C21.7104 11.6408 20.7734 13.0913 19.4439 13.7034V11.2693C19.4439 10.4913 18.8132 9.86026 18.0352 9.86026ZM30.9006 23.3982C29.6708 24.6284 27.9775 24.9413 26.6461 24.4478L28.3674 22.7265C28.9173 22.1761 28.9173 21.2839 28.3674 20.7338C27.8173 20.1837 26.9254 20.1837 26.375 20.7338L24.6545 22.4546C24.147 21.0816 24.5097 19.3936 25.7033 18.1998C27.7122 16.1906 30.468 15.5692 33.1476 15.9561C33.3683 17.4691 33.4847 20.8136 30.9006 23.3982Z" fill="white"/>
</svg>
