<svg width="36" height="36" viewBox="0 0 36 36" fill="none" xmlns="http://www.w3.org/2000/svg">
<path d="M18 -3.8147e-06C8.05188 -3.8147e-06 0 8.0505 0 18C0 18.7767 0.629517 19.4062 1.40625 19.4062H11.9553L10.3005 26.1996C9.08569 31.1869 12.8592 36 18 36C23.1328 36 26.9162 31.1943 25.6995 26.1996L24.0447 19.4062H34.5938C35.3705 19.4062 36 18.7767 36 18C36 8.05188 27.9495 -3.8147e-06 18 -3.8147e-06ZM18 33.1875C14.689 33.1875 12.2484 30.0874 13.0331 26.8654L14.8499 19.4062H21.1501L22.9669 26.8654C23.7505 30.0825 21.3162 33.1875 18 33.1875ZM2.87622 16.5937C3.57687 8.91183 10.0341 2.8125 18 2.8125C25.9632 2.8125 32.4226 8.90908 33.1238 16.5937C31.5393 16.5937 4.54724 16.5937 2.87622 16.5937ZM19.7578 7.59375C19.7578 8.56466 18.9709 9.35156 18 9.35156C17.0291 9.35156 16.2422 8.56466 16.2422 7.59375C16.2422 6.62283 17.0291 5.83593 18 5.83593C18.9709 5.83593 19.7578 6.62283 19.7578 7.59375ZM12.375 12.4453C12.375 13.4162 11.5881 14.2031 10.6172 14.2031C9.64627 14.2031 8.85938 13.4162 8.85938 12.4453C8.85938 11.4744 9.64627 10.6875 10.6172 10.6875C11.5881 10.6875 12.375 11.4744 12.375 12.4453ZM26.4375 12.4453C26.4375 13.4162 25.6506 14.2031 24.6797 14.2031C23.7088 14.2031 22.9219 13.4162 22.9219 12.4453C22.9219 11.4744 23.7088 10.6875 24.6797 10.6875C25.6506 10.6875 26.4375 11.4744 26.4375 12.4453Z" fill="white"/>
</svg>
