<svg width="36" height="32" viewBox="0 0 36 32" fill="none" xmlns="http://www.w3.org/2000/svg">
<path d="M12.7224 8.75894H14.8334V10.8683H12.7224V8.75894Z" fill="white"/>
<path d="M21.1665 8.75894H23.2775V10.8683H21.1665V8.75894Z" fill="white"/>
<path d="M16.9444 5.94412H19.0554V8.05349H16.9444V5.94412Z" fill="white"/>
<path d="M33.8444 12.981C33.9564 12.1437 33.8489 11.2807 33.5168 10.4789C33.0762 9.4153 32.2811 8.55362 31.2804 8.0324C31.1818 6.90859 30.69 5.84427 29.8759 5.03019C29.0618 4.21598 28.009 3.72702 26.8751 3.62852C26.3542 2.62656 25.492 1.83055 24.4272 1.38941C23.8348 1.14409 23.2109 1.01964 22.5729 1.01964C22.0811 1.01964 21.5888 1.096 21.1189 1.2433C20.2541 0.516695 19.1526 0.110992 18 0.110992C16.8474 0.110992 15.7459 0.516695 14.8811 1.2433C14.4112 1.096 13.9189 1.01964 13.4271 1.01964C12.7891 1.01964 12.1652 1.14409 11.5727 1.38948C10.5079 1.83055 9.64582 2.62656 9.12488 3.62852C7.99102 3.72695 6.93823 4.21598 6.12401 5.03027C5.31 5.84427 4.81809 6.90859 4.71959 8.03254C3.71897 8.55369 2.9238 9.41537 2.48323 10.4791C2.15114 11.2809 2.04363 12.1439 2.15557 12.9811H0V18.1679C0 23.0492 3.70104 27.0816 8.44425 27.608V31.889H27.5558V27.608C32.299 27.0815 36 23.0491 36 18.1679V12.981H33.8444ZM4.43208 11.2862C4.73815 10.5472 5.34473 9.98125 6.09645 9.73354L6.87916 9.47549L6.81806 8.65368C6.75935 7.86435 7.05002 7.0874 7.61555 6.52187C8.13298 6.00444 8.82113 5.71947 9.55301 5.71947C9.61868 5.71947 9.68463 5.72179 9.74911 5.7265L10.5698 5.78577L10.8269 5.00425C11.0744 4.25198 11.6405 3.64476 12.3799 3.33848C12.7152 3.19961 13.0674 3.12923 13.4272 3.12923C13.8514 3.12923 14.2763 3.22977 14.6559 3.41997L15.3912 3.78848L15.9277 3.16509C16.4445 2.5649 17.1998 2.22058 18.0001 2.22058C18.8005 2.22058 19.5558 2.56483 20.0724 3.16509L20.6089 3.78841L21.3443 3.42004C21.7239 3.22977 22.1488 3.12923 22.5731 3.12923C22.9328 3.12923 23.2851 3.19961 23.6202 3.33841C24.3598 3.64476 24.9259 4.25198 25.1734 5.00425L25.4305 5.78577L26.2512 5.7265C26.3156 5.72186 26.3816 5.71947 26.4473 5.71947C27.1792 5.71947 27.8672 6.00444 28.3846 6.5218C28.9502 7.0874 29.2409 7.86449 29.1822 8.65368L29.1211 9.47549L29.9038 9.73354C30.6555 9.98125 31.2621 10.5472 31.5682 11.2862C31.7937 11.8305 31.8368 12.4238 31.7018 12.981H4.29855C4.16355 12.4238 4.20666 11.8306 4.43208 11.2862ZM10.5536 29.7796V27.6668H25.4464V29.7796H10.5536ZM33.8906 18.1679C33.8906 22.2425 30.5757 25.5574 26.5011 25.5574H9.49894C5.42433 25.5574 2.10938 22.2425 2.10938 18.1679V15.0904H33.8906V18.1679Z" fill="white"/>
</svg>
